<svg width="18" height="18" viewBox="0 0 18 18" fill="none" xmlns="http://www.w3.org/2000/svg">
<path d="M10.7797 8.99588C10.7797 9.07663 10.7665 9.15113 10.7401 9.21938C10.7136 9.28763 10.6677 9.3545 10.6023 9.42L7.31096 12.7112C7.24084 12.7814 7.15552 12.8197 7.05502 12.8259C6.95452 12.8322 6.86296 12.7939 6.78034 12.7112C6.70046 12.6314 6.66052 12.543 6.66052 12.4459C6.66052 12.3488 6.70046 12.2603 6.78034 12.1806L9.96052 8.99588L6.78033 5.81119C6.71008 5.74107 6.67184 5.65575 6.66559 5.55525C6.65934 5.45475 6.69758 5.36319 6.78033 5.28056C6.86008 5.20069 6.94852 5.16075 7.04565 5.16075C7.14277 5.16075 7.23121 5.20069 7.31096 5.28056L10.6023 8.57175C10.6677 8.63725 10.7136 8.70413 10.7401 8.77238C10.7665 8.84063 10.7797 8.91513 10.7797 8.99588Z" fill="#1B1B1B"/>
</svg>
