<svg width="19" height="18" viewBox="0 0 19 18" fill="none" xmlns="http://www.w3.org/2000/svg">
<path d="M9.50671 8.16858C8.46626 8.16858 7.57556 7.77079 6.83463 6.9752C6.0937 6.17962 5.72323 5.22322 5.72323 4.10602C5.72323 2.98881 6.0937 2.03242 6.83463 1.23683C7.57556 0.44125 8.46626 0.043457 9.50671 0.043457C10.5472 0.043457 11.4379 0.44125 12.1788 1.23683C12.9197 2.03242 13.2902 2.98881 13.2902 4.10602C13.2902 5.22322 12.9197 6.17962 12.1788 6.9752C11.4379 7.77079 10.5472 8.16858 9.50671 8.16858ZM0.678589 16.5544V15.7314C0.678589 15.1723 0.830138 14.6493 1.13324 14.1622C1.43655 13.6754 1.84443 13.2973 2.35688 13.0281C3.54699 12.4153 4.73784 11.9557 5.92943 11.6492C7.12102 11.3429 8.31345 11.1898 9.50671 11.1898C10.7 11.1898 11.8924 11.3429 13.084 11.6492C14.2756 11.9557 15.4664 12.4153 16.6565 13.0281C17.169 13.2973 17.5769 13.6754 17.8802 14.1622C18.1833 14.6493 18.3348 15.1723 18.3348 15.7314V16.5544C18.3348 16.9518 18.2091 17.2855 17.9578 17.5555C17.7064 17.8256 17.3955 17.9607 17.0251 17.9607H1.9883C1.61794 17.9607 1.30707 17.8256 1.05568 17.5555C0.804285 17.2855 0.678589 16.9518 0.678589 16.5544ZM1.93975 16.6065H17.0737V15.7314C17.0737 15.431 16.9835 15.1489 16.8032 14.885C16.623 14.6212 16.3736 14.3981 16.055 14.2157C15.017 13.6758 13.9468 13.2622 12.8444 12.9749C11.7419 12.6876 10.6294 12.544 9.50671 12.544C8.38407 12.544 7.27152 12.6876 6.16905 12.9749C5.06659 13.2622 3.99639 13.6758 2.95845 14.2157C2.6398 14.3981 2.3904 14.6212 2.21027 14.885C2.02992 15.1489 1.93975 15.431 1.93975 15.7314V16.6065ZM9.50671 6.81439C10.2004 6.81439 10.7941 6.5492 11.2881 6.01881C11.7821 5.48842 12.029 4.85082 12.029 4.10602C12.029 3.36122 11.7821 2.72362 11.2881 2.19323C10.7941 1.66284 10.2004 1.39764 9.50671 1.39764C8.81308 1.39764 8.21928 1.66284 7.72532 2.19323C7.23137 2.72362 6.98439 3.36122 6.98439 4.10602C6.98439 4.85082 7.23137 5.48842 7.72532 6.01881C8.21928 6.5492 8.81308 6.81439 9.50671 6.81439Z" fill="#FBFBFB"/>
</svg>
