<svg width="20" height="14" viewBox="0 0 20 14" fill="none" xmlns="http://www.w3.org/2000/svg">
<path fill-rule="evenodd" clip-rule="evenodd" d="M19.8652 2.03307C19.8652 1.40002 19.3876 0.886841 18.7985 0.886841H17.7318C17.1427 0.886841 16.6652 1.40002 16.6652 2.03307V11.967C16.6652 12.6001 17.1427 13.1133 17.7318 13.1133H18.7985C19.3876 13.1133 19.8652 12.6001 19.8652 11.967V2.03307ZM12.431 3.33212H13.4977C14.0868 3.33212 14.5644 3.85762 14.5644 4.50586V11.9395C14.5644 12.5878 14.0868 13.1133 13.4977 13.1133H12.431C11.8419 13.1133 11.3644 12.5878 11.3644 11.9395V4.50586C11.3644 3.85762 11.8419 3.33212 12.431 3.33212ZM8.09928 5.98117H7.03261C6.44351 5.98117 5.96594 6.51336 5.96594 7.16985V11.9246C5.96594 12.5811 6.44351 13.1132 7.03261 13.1132H8.09928C8.68838 13.1132 9.16594 12.5811 9.16594 11.9246V7.16985C9.16594 6.51336 8.68838 5.98117 8.09928 5.98117ZM2.79849 8.42646H1.73183C1.14272 8.42646 0.665161 8.95105 0.665161 9.59816V11.9416C0.665161 12.5887 1.14272 13.1133 1.73183 13.1133H2.79849C3.3876 13.1133 3.86516 12.5887 3.86516 11.9416V9.59816C3.86516 8.95105 3.3876 8.42646 2.79849 8.42646Z" fill="black"/>
</svg>
